<svg version="1.1" id="Layer_1" xmlns="http://www.w3.org/2000/svg" xmlns:xlink="http://www.w3.org/1999/xlink" x="0px" y="0px"
	 width="100%" viewBox="0 0 500 500" enable-background="new 0 0 500 500" xml:space="preserve">
<path fill="#000000" opacity="1.000000" stroke="none" 
	d="
M329.000000,501.000000 
	C219.333359,501.000000 110.166718,501.000000 1.000059,501.000000 
	C1.000039,334.333405 1.000039,167.666794 1.000020,1.000148 
	C167.666565,1.000099 334.333130,1.000099 500.999756,1.000049 
	C500.999847,167.666519 500.999847,334.333038 500.999939,500.999786 
	C443.833344,501.000000 386.666656,501.000000 329.000000,501.000000 
M152.958084,410.500000 
	C153.487488,398.318542 151.706650,386.037567 154.181946,374.098938 
	C161.133743,373.010406 167.785522,372.279358 174.298080,370.893860 
	C198.984314,365.642242 221.153381,355.813599 238.807678,336.848297 
	C248.203186,326.755096 255.624802,315.488861 260.728333,303.001373 
	C266.853302,288.014648 269.355164,271.920349 269.708496,255.755234 
	C269.941925,245.074265 268.746246,234.344849 267.890381,223.661148 
	C266.441132,205.570236 260.858063,188.674393 251.825745,173.025208 
	C242.252518,156.438873 228.886261,143.725983 210.519974,137.520645 
	C198.868561,133.584030 186.719818,132.584885 174.238022,133.885880 
	C155.907318,135.796478 141.143646,143.476227 130.129425,158.195679 
	C119.104164,172.929855 115.538078,190.251251 115.295341,207.951126 
	C114.712753,250.432678 115.097816,292.927521 115.092445,335.416992 
	C115.092224,337.184204 115.092407,338.951416 115.092407,340.904755 
	C107.114342,341.943695 100.261864,339.269989 93.313354,337.097229 
	C68.145470,329.227509 52.323338,312.348694 45.982719,286.932159 
	C42.601574,273.378723 41.384430,259.602631 42.642879,245.441650 
	C43.690525,233.652786 44.902302,222.061432 48.477173,210.750259 
	C54.801239,190.740433 65.420265,173.052643 77.915749,156.112473 
	C67.875198,149.218719 57.983650,142.427246 48.344753,135.809265 
	C46.275749,137.707275 44.258923,138.888504 43.189526,140.646164 
	C35.820469,152.757996 28.368919,164.834122 21.475060,177.217438 
	C8.660696,200.235626 3.729094,225.408447 3.293651,251.405289 
	C3.108000,262.489075 4.602769,273.679779 6.189770,284.698608 
	C9.842612,310.061005 20.631218,331.687134 40.776974,348.217896 
	C56.082378,360.776886 73.917427,367.346527 93.065575,370.883545 
	C100.369011,372.232605 107.754135,373.139404 115.078888,374.244263 
	C115.078888,391.191528 115.078888,407.681610 115.078888,424.171661 
	C115.078888,440.621338 115.078888,457.070984 115.078888,473.666931 
	C127.879509,473.666931 140.267883,473.666931 152.958115,473.666931 
	C152.958115,452.762665 152.958115,432.131317 152.958084,410.500000 
M378.013245,207.476685 
	C375.667755,209.877396 373.466919,212.443192 370.950104,214.648407 
	C362.838104,221.756073 355.489868,229.707306 345.490692,234.617340 
	C340.848083,236.897064 336.773193,240.907257 333.335876,244.902847 
	C330.018097,248.759445 326.787476,252.020981 321.669830,253.229721 
	C311.596802,255.608902 301.614960,256.385712 291.737701,252.462845 
	C286.246216,250.281799 284.588165,253.089874 284.516449,257.322449 
	C284.402252,264.063019 286.794037,269.733795 292.480225,273.613464 
	C297.903473,277.313751 298.491791,278.654236 294.634857,283.986511 
	C287.742035,293.515991 280.602905,302.872437 273.372314,312.149689 
	C270.878235,315.349762 268.125916,318.533264 264.895905,320.917450 
	C262.252625,322.868561 258.468719,323.229919 255.684311,325.051117 
	C254.002243,326.151245 252.088669,328.842957 252.308334,330.559937 
	C253.148575,337.127686 253.892059,343.968231 256.375702,350.006012 
	C260.393250,359.772675 266.811279,368.154816 275.782349,374.168335 
	C284.688568,380.138397 294.973206,381.476318 305.255371,381.771210 
	C319.823700,382.188995 333.588562,378.124298 346.881470,372.447876 
	C353.278381,369.716248 359.401733,366.195862 365.986908,364.088684 
	C375.378937,361.083313 385.076538,359.028931 394.653809,356.608643 
	C398.417084,355.657593 402.480225,353.481262 405.932343,354.186279 
	C414.535706,355.943329 422.436523,354.016724 430.586792,352.096802 
	C442.227417,349.354706 453.814301,347.804291 465.781494,351.653503 
	C471.129822,353.373779 477.286346,353.026489 483.057343,352.879852 
	C491.095459,352.675598 493.011139,345.635193 489.375549,338.907806 
	C486.205994,333.042755 480.778809,329.793304 475.185394,327.214508 
	C458.070709,319.323822 439.589478,316.838409 421.084167,315.221680 
	C411.124390,314.351501 401.023438,314.963287 390.989349,315.115967 
	C380.920959,315.269165 371.054749,317.376740 360.890228,317.736847 
	C346.118835,318.260132 331.506836,322.951172 316.787048,325.647400 
	C314.757629,326.019104 311.551910,325.874512 310.607208,324.647430 
	C309.606995,323.348297 309.829895,319.820740 310.951965,318.392975 
	C316.343262,311.532623 322.211853,305.046722 327.945892,298.458252 
	C328.227112,298.135132 328.918030,298.199951 329.280731,297.911377 
	C332.496277,295.353271 336.267090,293.216797 338.741974,290.066498 
	C342.829834,284.862976 346.931610,280.346069 353.409027,277.786469 
	C371.041840,270.818756 389.496277,268.913513 408.128418,268.046143 
	C417.771179,267.597260 427.471375,268.275574 437.099609,267.689270 
	C439.765198,267.526917 443.042664,265.139618 444.488647,262.810425 
	C445.134705,261.769714 442.464752,257.118134 440.401733,256.257202 
	C435.449524,254.190598 430.010193,252.540024 424.688049,252.266724 
	C413.388275,251.686432 402.036163,252.194412 390.710083,251.995636 
	C388.660675,251.959656 386.633087,250.679688 384.595428,249.974030 
	C384.587982,249.345810 384.580566,248.717590 384.573151,248.089371 
	C387.668213,246.055450 390.637543,243.788254 393.885284,242.037506 
	C400.108490,238.682770 406.459198,235.558105 412.821716,232.471283 
	C415.177856,231.328201 417.677399,230.438675 420.178711,229.645294 
	C425.999420,227.799133 432.169189,227.053314 437.193634,222.938187 
	C439.448700,221.091217 442.339752,219.727661 445.163940,218.921570 
	C455.112183,216.082245 465.301453,214.024063 475.122681,210.821335 
	C484.522919,207.755890 488.858521,200.770691 488.977112,191.117477 
	C489.065887,183.888626 485.030396,178.688339 481.075073,173.151733 
	C472.202026,160.731323 460.703491,153.622116 445.217316,154.117126 
	C432.856537,154.512238 420.419769,154.639847 408.179749,156.181046 
	C391.867584,158.234985 375.692352,161.427109 359.497681,164.348618 
	C344.964508,166.970413 330.360626,168.803101 315.738495,165.953033 
	C304.344055,163.732056 293.538116,160.162750 287.044434,148.963974 
	C285.151611,145.699615 281.461914,143.181229 278.095917,141.148880 
	C274.614716,139.046982 272.534760,141.706680 272.241180,144.900635 
	C271.314026,154.987030 273.521027,164.612640 279.632416,172.612915 
	C284.849854,179.442902 290.679077,186.130142 297.384888,191.428558 
	C309.940552,201.349091 324.408325,207.317520 340.800446,206.816986 
	C351.852783,206.479492 362.884399,205.495651 373.935028,205.034134 
	C375.442932,204.971161 377.007446,206.263229 378.013245,207.476685 
z"/>
<path fill="#FDFDFC" opacity="1.000000" stroke="none" 
	d="
M152.958099,411.000000 
	C152.958115,432.131317 152.958115,452.762665 152.958115,473.666931 
	C140.267883,473.666931 127.879509,473.666931 115.078888,473.666931 
	C115.078888,457.070984 115.078888,440.621338 115.078888,424.171661 
	C115.078888,407.681610 115.078888,391.191528 115.078888,374.244263 
	C107.754135,373.139404 100.369011,372.232605 93.065575,370.883545 
	C73.917427,367.346527 56.082378,360.776886 40.776974,348.217896 
	C20.631218,331.687134 9.842612,310.061005 6.189770,284.698608 
	C4.602769,273.679779 3.108000,262.489075 3.293651,251.405289 
	C3.729094,225.408447 8.660696,200.235626 21.475060,177.217438 
	C28.368919,164.834122 35.820469,152.757996 43.189526,140.646164 
	C44.258923,138.888504 46.275749,137.707275 48.344753,135.809265 
	C57.983650,142.427246 67.875198,149.218719 77.915749,156.112473 
	C65.420265,173.052643 54.801239,190.740433 48.477173,210.750259 
	C44.902302,222.061432 43.690525,233.652786 42.642879,245.441650 
	C41.384430,259.602631 42.601574,273.378723 45.982719,286.932159 
	C52.323338,312.348694 68.145470,329.227509 93.313354,337.097229 
	C100.261864,339.269989 107.114342,341.943695 115.092407,340.904755 
	C115.092407,338.951416 115.092224,337.184204 115.092445,335.416992 
	C115.097816,292.927521 114.712753,250.432678 115.295341,207.951126 
	C115.538078,190.251251 119.104164,172.929855 130.129425,158.195679 
	C141.143646,143.476227 155.907318,135.796478 174.238022,133.885880 
	C186.719818,132.584885 198.868561,133.584030 210.519974,137.520645 
	C228.886261,143.725983 242.252518,156.438873 251.825745,173.025208 
	C260.858063,188.674393 266.441132,205.570236 267.890381,223.661148 
	C268.746246,234.344849 269.941925,245.074265 269.708496,255.755234 
	C269.355164,271.920349 266.853302,288.014648 260.728333,303.001373 
	C255.624802,315.488861 248.203186,326.755096 238.807678,336.848297 
	C221.153381,355.813599 198.984314,365.642242 174.298080,370.893860 
	C167.785522,372.279358 161.133743,373.010406 154.181946,374.098938 
	C151.706650,386.037567 153.487488,398.318542 152.958099,411.000000 
M153.695526,207.162537 
	C153.445358,214.051025 152.993088,220.939102 152.979080,227.828079 
	C152.908264,262.636322 152.927994,297.444885 152.999039,332.253143 
	C153.004745,335.054230 153.638428,337.853973 154.100708,341.640686 
	C158.406708,340.870941 163.350494,340.149261 168.219894,339.086639 
	C183.313583,335.792816 196.553833,328.569519 206.929047,317.384186 
	C218.633484,304.765839 225.711349,289.666473 228.308594,272.225616 
	C231.284012,252.245422 231.013718,232.527679 227.077484,212.832901 
	C223.860031,196.734451 217.470215,182.238098 203.768341,172.140472 
	C185.734055,158.850082 162.532745,167.973053 156.997665,186.551041 
	C155.069092,193.024094 154.338730,199.854126 153.695526,207.162537 
z"/>
<path fill="#FDFDFD" opacity="1.000000" stroke="none" 
	d="
M378.279480,207.202301 
	C377.007446,206.263229 375.442932,204.971161 373.935028,205.034134 
	C362.884399,205.495651 351.852783,206.479492 340.800446,206.816986 
	C324.408325,207.317520 309.940552,201.349091 297.384888,191.428558 
	C290.679077,186.130142 284.849854,179.442902 279.632416,172.612915 
	C273.521027,164.612640 271.314026,154.987030 272.241180,144.900635 
	C272.534760,141.706680 274.614716,139.046982 278.095917,141.148880 
	C281.461914,143.181229 285.151611,145.699615 287.044434,148.963974 
	C293.538116,160.162750 304.344055,163.732056 315.738495,165.953033 
	C330.360626,168.803101 344.964508,166.970413 359.497681,164.348618 
	C375.692352,161.427109 391.867584,158.234985 408.179749,156.181046 
	C420.419769,154.639847 432.856537,154.512238 445.217316,154.117126 
	C460.703491,153.622116 472.202026,160.731323 481.075073,173.151733 
	C485.030396,178.688339 489.065887,183.888626 488.977112,191.117477 
	C488.858521,200.770691 484.522919,207.755890 475.122681,210.821335 
	C465.301453,214.024063 455.112183,216.082245 445.163940,218.921570 
	C442.339752,219.727661 439.448700,221.091217 437.193634,222.938187 
	C432.169189,227.053314 425.999420,227.799133 420.178711,229.645294 
	C417.677399,230.438675 415.177856,231.328201 412.821716,232.471283 
	C406.459198,235.558105 400.108490,238.682770 393.885284,242.037506 
	C390.637543,243.788254 387.668213,246.055450 384.573151,248.089371 
	C384.580566,248.717590 384.587982,249.345810 384.595428,249.974030 
	C386.633087,250.679688 388.660675,251.959656 390.710083,251.995636 
	C402.036163,252.194412 413.388275,251.686432 424.688049,252.266724 
	C430.010193,252.540024 435.449524,254.190598 440.401733,256.257202 
	C442.464752,257.118134 445.134705,261.769714 444.488647,262.810425 
	C443.042664,265.139618 439.765198,267.526917 437.099609,267.689270 
	C427.471375,268.275574 417.771179,267.597260 408.128418,268.046143 
	C389.496277,268.913513 371.041840,270.818756 353.409027,277.786469 
	C346.931610,280.346069 342.829834,284.862976 338.741974,290.066498 
	C336.267090,293.216797 332.496277,295.353271 329.280731,297.911377 
	C328.918030,298.199951 328.227112,298.135132 327.945892,298.458252 
	C322.211853,305.046722 316.343262,311.532623 310.951965,318.392975 
	C309.829895,319.820740 309.606995,323.348297 310.607208,324.647430 
	C311.551910,325.874512 314.757629,326.019104 316.787048,325.647400 
	C331.506836,322.951172 346.118835,318.260132 360.890228,317.736847 
	C371.054749,317.376740 380.920959,315.269165 390.989349,315.115967 
	C401.023438,314.963287 411.124390,314.351501 421.084167,315.221680 
	C439.589478,316.838409 458.070709,319.323822 475.185394,327.214508 
	C480.778809,329.793304 486.205994,333.042755 489.375549,338.907806 
	C493.011139,345.635193 491.095459,352.675598 483.057343,352.879852 
	C477.286346,353.026489 471.129822,353.373779 465.781494,351.653503 
	C453.814301,347.804291 442.227417,349.354706 430.586792,352.096802 
	C422.436523,354.016724 414.535706,355.943329 405.932343,354.186279 
	C402.480225,353.481262 398.417084,355.657593 394.653809,356.608643 
	C385.076538,359.028931 375.378937,361.083313 365.986908,364.088684 
	C359.401733,366.195862 353.278381,369.716248 346.881470,372.447876 
	C333.588562,378.124298 319.823700,382.188995 305.255371,381.771210 
	C294.973206,381.476318 284.688568,380.138397 275.782349,374.168335 
	C266.811279,368.154816 260.393250,359.772675 256.375702,350.006012 
	C253.892059,343.968231 253.148575,337.127686 252.308334,330.559937 
	C252.088669,328.842957 254.002243,326.151245 255.684311,325.051117 
	C258.468719,323.229919 262.252625,322.868561 264.895905,320.917450 
	C268.125916,318.533264 270.878235,315.349762 273.372314,312.149689 
	C280.602905,302.872437 287.742035,293.515991 294.634857,283.986511 
	C298.491791,278.654236 297.903473,277.313751 292.480225,273.613464 
	C286.794037,269.733795 284.402252,264.063019 284.516449,257.322449 
	C284.588165,253.089874 286.246216,250.281799 291.737701,252.462845 
	C301.614960,256.385712 311.596802,255.608902 321.669830,253.229721 
	C326.787476,252.020981 330.018097,248.759445 333.335876,244.902847 
	C336.773193,240.907257 340.848083,236.897064 345.490692,234.617340 
	C355.489868,229.707306 362.838104,221.756073 370.950104,214.648407 
	C373.466919,212.443192 375.667755,209.877396 378.279480,207.202301 
z"/>
<path fill="#000000" opacity="1.000000" stroke="none" 
	d="
M153.378326,206.841827 
	C154.338730,199.854126 155.069092,193.024094 156.997665,186.551041 
	C162.532745,167.973053 185.734055,158.850082 203.768341,172.140472 
	C217.470215,182.238098 223.860031,196.734451 227.077484,212.832901 
	C231.013718,232.527679 231.284012,252.245422 228.308594,272.225616 
	C225.711349,289.666473 218.633484,304.765839 206.929047,317.384186 
	C196.553833,328.569519 183.313583,335.792816 168.219894,339.086639 
	C163.350494,340.149261 158.406708,340.870941 154.100708,341.640686 
	C153.638428,337.853973 153.004745,335.054230 152.999039,332.253143 
	C152.927994,297.444885 152.908264,262.636322 152.979080,227.828079 
	C152.993088,220.939102 153.445358,214.051025 153.378326,206.841827 
z"/>
</svg>